{
  "accessors": [
    {
      "bufferView": 2,
      "componentType": 5126,
      "count": 65532,
      "max": [
        0.9978387355804443,
        0.997486412525177,
        0.0952407717704773
      ],
      "min": [
        -0.9957176446914673,
        -0.9950901865959167,
        1.1588960902031431e-09
      ],
      "type": "VEC3"
    },
    {
      "bufferView": 2,
      "byteOffset": 786384,
      "componentType": 5126,
      "count": 65532,
      "max": [
        0.5910917520523071,
        0.9995644688606262,
        1.0
      ],
      "min": [
        -0.9008785486221313,
        -0.4915609657764435,
        0.003352014347910881
      ],
      "type": "VEC3"
    },
    {
      "bufferView": 1,
      "componentType": 5126,
      "count": 65532,
      "max": [
        1.0016899108886719,
        1.00006902217865
      ],
      "min": [
        -0.00022973056184127927,
        -3.843863669317216e-05
      ],
      "type": "VEC2"
    },
    {
      "bufferView": 0,
      "componentType": 5125,
      "count": 373878,
      "type": "SCALAR"
    },
    {
      "bufferView": 2,
      "byteOffset": 1572768,
      "componentType": 5126,
      "count": 65532,
      "max": [
        0.9362298250198364,
        0.9170467853546143,
        0.20959219336509705
      ],
      "min": [
        -0.9977782368659973,
        -0.9875587224960327,
        2.56522691977068e-09
      ],
      "type": "VEC3"
    },
    {
      "bufferView": 2,
      "byteOffset": 2359152,
      "componentType": 5126,
      "count": 65532,
      "max": [
        0.6196449995040894,
        0.9924740195274353,
        1.0
      ],
      "min": [
        -0.9817679524421692,
        -0.9227801561355591,
        0.11155376583337784
      ],
      "type": "VEC3"
    },
    {
      "bufferView": 1,
      "byteOffset": 524256,
      "componentType": 5126,
      "count": 65532,
      "max": [
        0.9771673083305359,
        0.9618558883666992
      ],
      "min": [
        -3.9770412740836036e-08,
        4.701294164988212e-05
      ],
      "type": "VEC2"
    },
    {
      "bufferView": 0,
      "byteOffset": 1495512,
      "componentType": 5125,
      "count": 375711,
      "type": "SCALAR"
    },
    {
      "bufferView": 2,
      "byteOffset": 3145536,
      "componentType": 5126,
      "count": 65532,
      "max": [
        0.739284873008728,
        0.6995903849601746,
        0.4230395555496216
      ],
      "min": [
        -0.606002688407898,
        -0.9418954849243164,
        1.2049757970089559e-05
      ],
      "type": "VEC3"
    },
    {
      "bufferView": 2,
      "byteOffset": 3931920,
      "componentType": 5126,
      "count": 65532,
      "max": [
        0.9218884706497192,
        0.9847402572631836,
        0.9999999403953552
      ],
      "min": [
        -0.997408390045166,
        -0.9304513335227966,
        0.06620603054761887
      ],
      "type": "VEC3"
    },
    {
      "bufferView": 1,
      "byteOffset": 1048512,
      "componentType": 5126,
      "count": 65532,
      "max": [
        0.8698017597198486,
        0.8470840454101563
      ],
      "min": [
        0.19776985049247742,
        0.01932213269174099
      ],
      "type": "VEC2"
    },
    {
      "bufferView": 0,
      "byteOffset": 2998356,
      "componentType": 5125,
      "count": 373116,
      "type": "SCALAR"
    },
    {
      "bufferView": 2,
      "byteOffset": 4718304,
      "componentType": 5126,
      "count": 65532,
      "max": [
        0.8129993081092834,
        0.6260436177253723,
        0.43687695264816284
      ],
      "min": [
        -0.5919173955917358,
        -0.6349208354949951,
        0.0002635630953591317
      ],
      "type": "VEC3"
    },
    {
      "bufferView": 2,
      "byteOffset": 5504688,
      "componentType": 5126,
      "count": 65532,
      "max": [
        0.889503002166748,
        0.9759374856948853,
        0.9999961853027344
      ],
      "min": [
        -0.9922038912773132,
        -0.9819219708442688,
        0.0877666100859642
      ],
      "type": "VEC3"
    },
    {
      "bufferView": 1,
      "byteOffset": 1572768,
      "componentType": 5126,
      "count": 65532,
      "max": [
        0.906314492225647,
        0.8128568530082703
      ],
      "min": [
        0.20465290546417236,
        0.18216070532798767
      ],
      "type": "VEC2"
    },
    {
      "bufferView": 0,
      "byteOffset": 4490820,
      "componentType": 5125,
      "count": 374157,
      "type": "SCALAR"
    },
    {
      "bufferView": 2,
      "byteOffset": 6291072,
      "componentType": 5126,
      "count": 65532,
      "max": [
        0.9524750709533691,
        0.5313416719436646,
        0.4392067790031433
      ],
      "min": [
        -0.5828477144241333,
        -0.4964423179626465,
        3.109306999249384e-05
      ],
      "type": "VEC3"
    },
    {
      "bufferView": 2,
      "byteOffset": 7077456,
      "componentType": 5126,
      "count": 65532,
      "max": [
        0.9885413646697998,
        0.960412859916687,
        0.9999995827674866
      ],
      "min": [
        -0.9462577104568481,
        -0.9896383881568909,
        0.12357749044895172
      ],
      "type": "VEC3"
    },
    {
      "bufferView": 1,
      "byteOffset": 2097024,
      "componentType": 5126,
      "count": 65532,
      "max": [
        0.9816657304763794,
        0.7656251788139343
      ],
      "min": [
        0.2070436328649521,
        0.2518768012523651
      ],
      "type": "VEC2"
    },
    {
      "bufferView": 0,
      "byteOffset": 5987448,
      "componentType": 5125,
      "count": 375654,
      "type": "SCALAR"
    },
    {
      "bufferView": 2,
      "byteOffset": 7863840,
      "componentType": 5126,
      "count": 65532,
      "max": [
        0.860643744468689,
        0.4356864392757416,
        0.43864738941192627
      ],
      "min": [
        -0.8754974603652954,
        -0.4134104251861572,
        2.176477028115187e-05
      ],
      "type": "VEC3"
    },
    {
      "bufferView": 2,
      "byteOffset": 8650224,
      "componentType": 5126,
      "count": 65532,
      "max": [
        0.9912658929824829,
        0.9836036562919617,
        0.9999999403953552
      ],
      "min": [
        -0.8797301054000854,
        -0.9849042892456055,
        0.10809315741062164
      ],
      "type": "VEC3"
    },
    {
      "bufferView": 1,
      "byteOffset": 2621280,
      "componentType": 5126,
      "count": 65532,
      "max": [
        0.929984450340271,
        0.7221556305885315
      ],
      "min": [
        0.06672452390193939,
        0.29303523898124695
      ],
      "type": "VEC2"
    },
    {
      "bufferView": 0,
      "byteOffset": 7490064,
      "componentType": 5125,
      "count": 372993,
      "type": "SCALAR"
    },
    {
      "bufferView": 2,
      "byteOffset": 9436608,
      "componentType": 5126,
      "count": 65532,
      "max": [
        0.9724986553192139,
        0.28264349699020386,
        0.43850278854370117
      ],
      "min": [
        -0.9384440779685974,
        -0.46391046047210693,
        1.5077515854500234e-05
      ],
      "type": "VEC3"
    },
    {
      "bufferView": 2,
      "byteOffset": 10222992,
      "componentType": 5126,
      "count": 65532,
      "max": [
        0.9912658929824829,
        0.9617252945899963,
        1.0
      ],
      "min": [
        -0.9972516298294067,
        -0.9783358573913574,
        0.06946981698274612
      ],
      "type": "VEC3"
    },
    {
      "bufferView": 1,
      "byteOffset": 3145536,
      "componentType": 5126,
      "count": 65532,
      "max": [
        0.9963638782501221,
        0.6408917903900146
      ],
      "min": [
        0.027422143146395683,
        0.2694501280784607
      ],
      "type": "VEC2"
    },
    {
      "bufferView": 0,
      "byteOffset": 8982036,
      "componentType": 5125,
      "count": 363648,
      "type": "SCALAR"
    },
    {
      "bufferView": 2,
      "byteOffset": 11009376,
      "componentType": 5126,
      "count": 42386,
      "max": [
        0.9930187463760376,
        0.9951191544532776,
        0.4371218681335449
      ],
      "min": [
        -0.9916372895240784,
        -0.9962866306304932,
        5.005403869162706e-10
      ],
      "type": "VEC3"
    },
    {
      "bufferView": 2,
      "byteOffset": 11518008,
      "componentType": 5126,
      "count": 42386,
      "max": [
        0.9842094779014587,
        0.9217622876167297,
        1.0
      ],
      "min": [
        -0.9630278944969177,
        -0.9867989420890808,
        0.10915224999189377
      ],
      "type": "VEC3"
    },
    {
      "bufferView": 1,
      "byteOffset": 3669792,
      "componentType": 5126,
      "count": 42386,
      "max": [
        1.0016899108886719,
        1.000000238418579
      ],
      "min": [
        0.0019530963618308306,
        -6.4078544710355345e-06
      ],
      "type": "VEC2"
    },
    {
      "bufferView": 0,
      "byteOffset": 10436628,
      "componentType": 5125,
      "count": 219891,
      "type": "SCALAR"
    }
  ],
  "asset": {
    "extras": {
      "author": "Šimon Ustal (https://sketchfab.com/simonustal)",
      "license": "CC-BY-4.0 (http://creativecommons.org/licenses/by/4.0/)",
      "source": "https://sketchfab.com/3d-models/red-canyon-landscape-6c483f7e87d541e5a1fb17bc2154a0be",
      "title": "Red Canyon Landscape"
    },
    "generator": "Sketchfab-12.68.0",
    "version": "2.0"
  },
  "bufferViews": [
    {
      "buffer": 0,
      "byteLength": 11316192,
      "name": "floatBufferViews",
      "target": 34963
    },
    {
      "buffer": 0,
      "byteLength": 4008880,
      "byteOffset": 11316192,
      "byteStride": 8,
      "name": "floatBufferViews",
      "target": 34962
    },
    {
      "buffer": 0,
      "byteLength": 12026640,
      "byteOffset": 15325072,
      "byteStride": 12,
      "name": "floatBufferViews",
      "target": 34962
    }
  ],
  "buffers": [
    {
      "byteLength": 27351712,
      "uri": "scene.bin"
    }
  ],
  "images": [
    {
      "uri": "textures/Material.001_baseColor.png"
    },
    {
      "uri": "textures/Material.001_metallicRoughness.png"
    }
  ],
  "materials": [
    {
      "doubleSided": true,
      "name": "Material.001",
      "occlusionTexture": {
        "index": 1,
        "strength": 0.9393125057220459
      },
      "pbrMetallicRoughness": {
        "baseColorTexture": {
          "index": 0
        },
        "metallicFactor": 0.7955625057220459,
        "metallicRoughnessTexture": {
          "index": 1
        }
      }
    }
  ],
  "meshes": [
    {
      "name": "Plane_Material.001_0",
      "primitives": [
        {
          "attributes": {
            "NORMAL": 1,
            "POSITION": 0,
            "TEXCOORD_0": 2
          },
          "indices": 3,
          "material": 0,
          "mode": 4
        }
      ]
    },
    {
      "name": "Plane_Material.001_0",
      "primitives": [
        {
          "attributes": {
            "NORMAL": 5,
            "POSITION": 4,
            "TEXCOORD_0": 6
          },
          "indices": 7,
          "material": 0,
          "mode": 4
        }
      ]
    },
    {
      "name": "Plane_Material.001_0",
      "primitives": [
        {
          "attributes": {
            "NORMAL": 9,
            "POSITION": 8,
            "TEXCOORD_0": 10
          },
          "indices": 11,
          "material": 0,
          "mode": 4
        }
      ]
    },
    {
      "name": "Plane_Material.001_0",
      "primitives": [
        {
          "attributes": {
            "NORMAL": 13,
            "POSITION": 12,
            "TEXCOORD_0": 14
          },
          "indices": 15,
          "material": 0,
          "mode": 4
        }
      ]
    },
    {
      "name": "Plane_Material.001_0",
      "primitives": [
        {
          "attributes": {
            "NORMAL": 17,
            "POSITION": 16,
            "TEXCOORD_0": 18
          },
          "indices": 19,
          "material": 0,
          "mode": 4
        }
      ]
    },
    {
      "name": "Plane_Material.001_0",
      "primitives": [
        {
          "attributes": {
            "NORMAL": 21,
            "POSITION": 20,
            "TEXCOORD_0": 22
          },
          "indices": 23,
          "material": 0,
          "mode": 4
        }
      ]
    },
    {
      "name": "Plane_Material.001_0",
      "primitives": [
        {
          "attributes": {
            "NORMAL": 25,
            "POSITION": 24,
            "TEXCOORD_0": 26
          },
          "indices": 27,
          "material": 0,
          "mode": 4
        }
      ]
    },
    {
      "name": "Plane_Material.001_0",
      "primitives": [
        {
          "attributes": {
            "NORMAL": 29,
            "POSITION": 28,
            "TEXCOORD_0": 30
          },
          "indices": 31,
          "material": 0,
          "mode": 4
        }
      ]
    }
  ],
  "nodes": [
    {
      "children": [
        1
      ],
      "matrix": [
        1.0,
        0.0,
        0.0,
        0.0,
        0.0,
        2.220446049250313e-16,
        -1.0,
        0.0,
        0.0,
        1.0,
        2.220446049250313e-16,
        0.0,
        0.0,
        0.0,
        0.0,
        1.0
      ],
      "name": "Sketchfab_model"
    },
    {
      "children": [
        2
      ],
      "matrix": [
        1.0,
        0.0,
        0.0,
        0.0,
        0.0,
        0.0,
        1.0,
        0.0,
        0.0,
        -1.0,
        0.0,
        0.0,
        0.0,
        0.0,
        0.0,
        1.0
      ],
      "name": "e5a4934d833d4e34a78c3d11210d86f4.fbx"
    },
    {
      "children": [
        3,
        12,
        14,
        17,
        20
      ],
      "name": "RootNode"
    },
    {
      "children": [
        4,
        5,
        6,
        7,
        8,
        9,
        10,
        11
      ],
      "matrix": [
        496.81573486328125,
        0.0,
        0.0,
        0.0,
        0.0,
        -8.094155705647776e-05,
        -496.8157348632747,
        0.0,
        0.0,
        496.8157348632747,
        -8.094155705647776e-05,
        0.0,
        0.0,
        0.0,
        0.0,
        1.0
      ],
      "name": "Plane"
    },
    {
      "mesh": 0,
      "name": "Plane_Material.001_0"
    },
    {
      "mesh": 1,
      "name": "Plane_Material.001_0"
    },
    {
      "mesh": 2,
      "name": "Plane_Material.001_0"
    },
    {
      "mesh": 3,
      "name": "Plane_Material.001_0"
    },
    {
      "mesh": 4,
      "name": "Plane_Material.001_0"
    },
    {
      "mesh": 5,
      "name": "Plane_Material.001_0"
    },
    {
      "mesh": 6,
      "name": "Plane_Material.001_0"
    },
    {
      "mesh": 7,
      "name": "Plane_Material.001_0"
    },
    {
      "children": [
        13
      ],
      "matrix": [
        -65.15583048631922,
        -44.52712848496765,
        -61.41702578798792,
        0.0,
        -32.401335185591705,
        89.53956278095312,
        -30.542079976777014,
        0.0,
        68.592052790029,
        -9.470078337315971e-06,
        -72.76763544441263,
        0.0,
        735.88916015625,
        495.8309326171875,
        692.5791015625,
        1.0
      ],
      "name": "Camera.001"
    },
    {
      "name": "Object_13"
    },
    {
      "children": [
        15
      ],
      "matrix": [
        -29.086464451752825,
        -5.518900446507607,
        -95.51711534357838,
        0.0,
        56.63932116211723,
        79.46722801901794,
        -21.839115578886208,
        0.0,
        77.11007701143383,
        -60.452467701511644,
        -19.98833775504079,
        0.0,
        407.6245422363281,
        590.38623046875,
        -100.54539489746094,
        1.0
      ],
      "name": "Light"
    },
    {
      "children": [
        16
      ],
      "matrix": [
        1.0,
        0.0,
        0.0,
        0.0,
        0.0,
        2.220446049250313e-16,
        1.0,
        0.0,
        0.0,
        -1.0,
        2.220446049250313e-16,
        0.0,
        0.0,
        0.0,
        0.0,
        1.0
      ],
      "name": "Object_15"
    },
    {
      "name": "Object_16"
    },
    {
      "children": [
        18
      ],
      "matrix": [
        -29.08647719990347,
        -5.518906457566863,
        -95.51711910171437,
        0.0,
        56.63930913109449,
        79.46723428563203,
        -21.83912397841966,
        0.0,
        77.11008775993375,
        -60.45246356562044,
        -19.98834696773717,
        0.0,
        407.6245422363281,
        590.38623046875,
        -100.54539489746094,
        1.0
      ],
      "name": "Lamp"
    },
    {
      "children": [
        19
      ],
      "matrix": [
        1.0,
        0.0,
        0.0,
        0.0,
        0.0,
        2.220446049250313e-16,
        1.0,
        0.0,
        0.0,
        -1.0,
        2.220446049250313e-16,
        0.0,
        0.0,
        0.0,
        0.0,
        1.0
      ],
      "name": "Object_18"
    },
    {
      "name": "Object_19"
    },
    {
      "children": [
        21
      ],
      "matrix": [
        -65.15583280329096,
        -44.52713576570858,
        -61.41703047373549,
        0.0,
        -32.40134137821245,
        89.53957451233616,
        -30.542088974418615,
        0.0,
        68.59205472129975,
        -1.0718647115348782e-05,
        -72.7676336239627,
        0.0,
        748.1131591796875,
        534.3665161132813,
        650.7639770507813,
        1.0
      ],
      "name": "Camera"
    },
    {
      "name": "Object_21"
    }
  ],
  "samplers": [
    {
      "magFilter": 9729,
      "minFilter": 9987,
      "wrapS": 10497,
      "wrapT": 10497
    }
  ],
  "scene": 0,
  "scenes": [
    {
      "name": "Sketchfab_Scene",
      "nodes": [
        0
      ]
    }
  ],
  "textures": [
    {
      "sampler": 0,
      "source": 0
    },
    {
      "sampler": 0,
      "source": 1
    }
  ]
}
