{
  "accessors": [
    {
      "bufferView": 2,
      "componentType": 5126,
      "count": 3696,
      "max": [
        1638.0899658203125,
        3011.050048828125,
        3831.419921875
      ],
      "min": [
        -1639.030029296875,
        -2968.090087890625,
        -687.906982421875
      ],
      "type": "VEC3"
    },
    {
      "bufferView": 2,
      "byteOffset": 44352,
      "componentType": 5126,
      "count": 3696,
      "max": [
        1.0,
        1.0,
        1.0
      ],
      "min": [
        -1.0,
        -1.0,
        -1.0
      ],
      "type": "VEC3"
    },
    {
      "bufferView": 1,
      "componentType": 5126,
      "count": 3696,
      "max": [
        20.00279998779297,
        13.251799583435059
      ],
      "min": [
        -26.550800323486328,
        -1.9990899562835693
      ],
      "type": "VEC2"
    },
    {
      "bufferView": 0,
      "componentType": 5125,
      "count": 9078,
      "type": "SCALAR"
    },
    {
      "bufferView": 2,
      "byteOffset": 88704,
      "componentType": 5126,
      "count": 3844,
      "max": [
        1391.239990234375,
        2979.179931640625,
        3372.090087890625
      ],
      "min": [
        -1387.030029296875,
        -2400.330078125,
        -1377.4000244140625
      ],
      "type": "VEC3"
    },
    {
      "bufferView": 2,
      "byteOffset": 134832,
      "componentType": 5126,
      "count": 3844,
      "max": [
        1.0,
        1.0,
        1.0
      ],
      "min": [
        -1.0,
        -1.0,
        -1.0
      ],
      "type": "VEC3"
    },
    {
      "bufferView": 1,
      "byteOffset": 29568,
      "componentType": 5126,
      "count": 3844,
      "max": [
        18.240999221801758,
        5.994279861450195
      ],
      "min": [
        -14.529399871826172,
        -9.005180358886719
      ],
      "type": "VEC2"
    },
    {
      "bufferView": 0,
      "byteOffset": 36312,
      "componentType": 5125,
      "count": 9486,
      "type": "SCALAR"
    },
    {
      "bufferView": 2,
      "byteOffset": 180960,
      "componentType": 5126,
      "count": 4134,
      "max": [
        1437.4200439453125,
        2969.489990234375,
        3494.659912109375
      ],
      "min": [
        -1437.4200439453125,
        -2955.739990234375,
        -1317.969970703125
      ],
      "type": "VEC3"
    },
    {
      "bufferView": 2,
      "byteOffset": 230568,
      "componentType": 5126,
      "count": 4134,
      "max": [
        1.0,
        1.0,
        1.0
      ],
      "min": [
        -1.0,
        -1.0,
        -1.0
      ],
      "type": "VEC3"
    },
    {
      "bufferView": 1,
      "byteOffset": 60320,
      "componentType": 5126,
      "count": 4134,
      "max": [
        13.376700401306152,
        4.841869831085205
      ],
      "min": [
        -10.864500045776367,
        -17.75200080871582
      ],
      "type": "VEC2"
    },
    {
      "bufferView": 0,
      "byteOffset": 74256,
      "componentType": 5125,
      "count": 8136,
      "type": "SCALAR"
    },
    {
      "bufferView": 2,
      "byteOffset": 280176,
      "componentType": 5126,
      "count": 4441,
      "max": [
        815.8280029296875,
        2966.669921875,
        3355.530029296875
      ],
      "min": [
        -1157.68994140625,
        -2834.72998046875,
        88.57140350341797
      ],
      "type": "VEC3"
    },
    {
      "bufferView": 2,
      "byteOffset": 333468,
      "componentType": 5126,
      "count": 4441,
      "max": [
        0.9995694756507874,
        1.0,
        0.9989614486694336
      ],
      "min": [
        -1.0,
        -1.0,
        -1.0
      ],
      "type": "VEC3"
    },
    {
      "bufferView": 1,
      "byteOffset": 93392,
      "componentType": 5126,
      "count": 4441,
      "max": [
        1.271630048751831,
        0.4453429877758026
      ],
      "min": [
        -0.680961012840271,
        -1.1087199449539185
      ],
      "type": "VEC2"
    },
    {
      "bufferView": 0,
      "byteOffset": 106800,
      "componentType": 5125,
      "count": 7947,
      "type": "SCALAR"
    },
    {
      "bufferView": 2,
      "byteOffset": 386760,
      "componentType": 5126,
      "count": 776,
      "max": [
        379.68798828125,
        -2108.760009765625,
        1134.43994140625
      ],
      "min": [
        -379.68701171875,
        -2868.1201171875,
        320.2460021972656
      ],
      "type": "VEC3"
    },
    {
      "bufferView": 2,
      "byteOffset": 396072,
      "componentType": 5126,
      "count": 776,
      "max": [
        0.9960492253303528,
        0.9658873677253723,
        0.9914565086364746
      ],
      "min": [
        -0.9960498809814453,
        -0.9971936345100403,
        -0.9744961261749268
      ],
      "type": "VEC3"
    },
    {
      "bufferView": 1,
      "byteOffset": 128920,
      "componentType": 5126,
      "count": 776,
      "max": [
        1.1726900339126587,
        1.958549976348877
      ],
      "min": [
        -1.0450199842453003,
        -2.053809881210327
      ],
      "type": "VEC2"
    },
    {
      "bufferView": 0,
      "byteOffset": 138588,
      "componentType": 5125,
      "count": 3834,
      "type": "SCALAR"
    },
    {
      "bufferView": 2,
      "byteOffset": 405384,
      "componentType": 5126,
      "count": 2666,
      "max": [
        1351.6700439453125,
        2403.169921875,
        1157.06005859375
      ],
      "min": [
        -1351.6700439453125,
        -2540.070068359375,
        -867.073974609375
      ],
      "type": "VEC3"
    },
    {
      "bufferView": 2,
      "byteOffset": 437376,
      "componentType": 5126,
      "count": 2666,
      "max": [
        1.0,
        1.0,
        1.0
      ],
      "min": [
        -1.0,
        -1.0,
        -1.0
      ],
      "type": "VEC3"
    },
    {
      "bufferView": 1,
      "byteOffset": 135128,
      "componentType": 5126,
      "count": 2666,
      "max": [
        12.893500328063965,
        11.671699523925781
      ],
      "min": [
        -9.587719917297363,
        -15.327199935913086
      ],
      "type": "VEC2"
    },
    {
      "bufferView": 0,
      "byteOffset": 153924,
      "componentType": 5125,
      "count": 6243,
      "type": "SCALAR"
    },
    {
      "bufferView": 2,
      "byteOffset": 469368,
      "componentType": 5126,
      "count": 2598,
      "max": [
        1797.3499755859375,
        1478.4599609375,
        3864.469970703125
      ],
      "min": [
        -1797.1700439453125,
        -677.5430297851563,
        192.73500061035156
      ],
      "type": "VEC3"
    },
    {
      "bufferView": 2,
      "byteOffset": 500544,
      "componentType": 5126,
      "count": 2598,
      "max": [
        1.0,
        0.9998691082000732,
        0.8793129920959473
      ],
      "min": [
        -1.0,
        -0.9996371269226074,
        -0.9237401485443115
      ],
      "type": "VEC3"
    },
    {
      "bufferView": 1,
      "byteOffset": 156456,
      "componentType": 5126,
      "count": 2598,
      "max": [
        1.4548100233078003,
        1.4383599758148193
      ],
      "min": [
        0.24316799640655518,
        -2.415479898452759
      ],
      "type": "VEC2"
    },
    {
      "bufferView": 0,
      "byteOffset": 178896,
      "componentType": 5125,
      "count": 6408,
      "type": "SCALAR"
    },
    {
      "bufferView": 2,
      "byteOffset": 531720,
      "componentType": 5126,
      "count": 6670,
      "max": [
        1289.4300537109375,
        2950.199951171875,
        3202.989990234375
      ],
      "min": [
        -1285.02001953125,
        -1961.56005859375,
        -121.31900024414063
      ],
      "type": "VEC3"
    },
    {
      "bufferView": 2,
      "byteOffset": 611760,
      "componentType": 5126,
      "count": 6670,
      "max": [
        1.0,
        1.0,
        1.0
      ],
      "min": [
        -1.0,
        -1.0,
        -1.0
      ],
      "type": "VEC3"
    },
    {
      "bufferView": 1,
      "byteOffset": 177240,
      "componentType": 5126,
      "count": 6670,
      "max": [
        10.077799797058105,
        10.076499938964844
      ],
      "min": [
        -9.081839561462402,
        -5.328350067138672
      ],
      "type": "VEC2"
    },
    {
      "bufferView": 0,
      "byteOffset": 204528,
      "componentType": 5125,
      "count": 10902,
      "type": "SCALAR"
    },
    {
      "bufferView": 2,
      "byteOffset": 691800,
      "componentType": 5126,
      "count": 7822,
      "max": [
        1638.989990234375,
        2707.2900390625,
        3400.47998046875
      ],
      "min": [
        -1639.010009765625,
        -682.8690185546875,
        205.12100219726563
      ],
      "type": "VEC3"
    },
    {
      "bufferView": 2,
      "byteOffset": 785664,
      "componentType": 5126,
      "count": 7822,
      "max": [
        0.9995287656784058,
        0.9999993443489075,
        0.999760627746582
      ],
      "min": [
        -0.994880735874176,
        -0.9999698996543884,
        -0.9977514743804932
      ],
      "type": "VEC3"
    },
    {
      "bufferView": 1,
      "byteOffset": 230600,
      "componentType": 5126,
      "count": 7822,
      "max": [
        2.612109899520874,
        11.344499588012695
      ],
      "min": [
        -1.5292999744415283,
        -19.44260025024414
      ],
      "type": "VEC2"
    },
    {
      "bufferView": 0,
      "byteOffset": 248136,
      "componentType": 5125,
      "count": 22158,
      "type": "SCALAR"
    }
  ],
  "asset": {
    "extras": {
      "author": "serienreviewer (https://sketchfab.com/serienreviewer)",
      "license": "CC-BY-4.0 (http://creativecommons.org/licenses/by/4.0/)",
      "source": "https://sketchfab.com/3d-models/thousand-sunny-cfa15cf0499c4e7dac61cd58905c5e27",
      "title": "thousand Sunny"
    },
    "generator": "Sketchfab-12.68.0",
    "version": "2.0"
  },
  "bufferViews": [
    {
      "buffer": 0,
      "byteLength": 336768,
      "name": "floatBufferViews",
      "target": 34963
    },
    {
      "buffer": 0,
      "byteLength": 293176,
      "byteOffset": 336768,
      "byteStride": 8,
      "name": "floatBufferViews",
      "target": 34962
    },
    {
      "buffer": 0,
      "byteLength": 879528,
      "byteOffset": 629944,
      "byteStride": 12,
      "name": "floatBufferViews",
      "target": 34962
    }
  ],
  "buffers": [
    {
      "byteLength": 1509472,
      "uri": "scene.bin"
    }
  ],
  "materials": [
    {
      "doubleSided": true,
      "name": "Scene_-_Root",
      "pbrMetallicRoughness": {
        "baseColorFactor": [
          0.5,
          0.5,
          0.5,
          1.0
        ],
        "metallicFactor": 0.0,
        "roughnessFactor": 0.6
      }
    }
  ],
  "meshes": [
    {
      "name": "Object_0",
      "primitives": [
        {
          "attributes": {
            "NORMAL": 1,
            "POSITION": 0,
            "TEXCOORD_0": 2
          },
          "indices": 3,
          "material": 0,
          "mode": 4
        }
      ]
    },
    {
      "name": "Object_1",
      "primitives": [
        {
          "attributes": {
            "NORMAL": 5,
            "POSITION": 4,
            "TEXCOORD_0": 6
          },
          "indices": 7,
          "material": 0,
          "mode": 4
        }
      ]
    },
    {
      "name": "Object_2",
      "primitives": [
        {
          "attributes": {
            "NORMAL": 9,
            "POSITION": 8,
            "TEXCOORD_0": 10
          },
          "indices": 11,
          "material": 0,
          "mode": 4
        }
      ]
    },
    {
      "name": "Object_3",
      "primitives": [
        {
          "attributes": {
            "NORMAL": 13,
            "POSITION": 12,
            "TEXCOORD_0": 14
          },
          "indices": 15,
          "material": 0,
          "mode": 4
        }
      ]
    },
    {
      "name": "Object_4",
      "primitives": [
        {
          "attributes": {
            "NORMAL": 17,
            "POSITION": 16,
            "TEXCOORD_0": 18
          },
          "indices": 19,
          "material": 0,
          "mode": 4
        }
      ]
    },
    {
      "name": "Object_5",
      "primitives": [
        {
          "attributes": {
            "NORMAL": 21,
            "POSITION": 20,
            "TEXCOORD_0": 22
          },
          "indices": 23,
          "material": 0,
          "mode": 4
        }
      ]
    },
    {
      "name": "Object_6",
      "primitives": [
        {
          "attributes": {
            "NORMAL": 25,
            "POSITION": 24,
            "TEXCOORD_0": 26
          },
          "indices": 27,
          "material": 0,
          "mode": 4
        }
      ]
    },
    {
      "name": "Object_7",
      "primitives": [
        {
          "attributes": {
            "NORMAL": 29,
            "POSITION": 28,
            "TEXCOORD_0": 30
          },
          "indices": 31,
          "material": 0,
          "mode": 4
        }
      ]
    },
    {
      "name": "Object_8",
      "primitives": [
        {
          "attributes": {
            "NORMAL": 33,
            "POSITION": 32,
            "TEXCOORD_0": 34
          },
          "indices": 35,
          "material": 0,
          "mode": 4
        }
      ]
    }
  ],
  "nodes": [
    {
      "children": [
        1
      ],
      "matrix": [
        1.0,
        0.0,
        0.0,
        0.0,
        0.0,
        2.220446049250313e-16,
        -1.0,
        0.0,
        0.0,
        1.0,
        2.220446049250313e-16,
        0.0,
        0.0,
        0.0,
        0.0,
        1.0
      ],
      "name": "Sketchfab_model"
    },
    {
      "children": [
        2,
        3,
        4,
        5,
        6,
        7,
        8,
        9,
        10
      ],
      "name": "09365ab5318c49679894b598879c21d1.obj.cleaner"
    },
    {
      "mesh": 0,
      "name": "Object_2"
    },
    {
      "mesh": 1,
      "name": "Object_3"
    },
    {
      "mesh": 2,
      "name": "Object_4"
    },
    {
      "mesh": 3,
      "name": "Object_5"
    },
    {
      "mesh": 4,
      "name": "Object_6"
    },
    {
      "mesh": 5,
      "name": "Object_7"
    },
    {
      "mesh": 6,
      "name": "Object_8"
    },
    {
      "mesh": 7,
      "name": "Object_9"
    },
    {
      "mesh": 8,
      "name": "Object_10"
    }
  ],
  "scene": 0,
  "scenes": [
    {
      "name": "Sketchfab_Scene",
      "nodes": [
        0
      ]
    }
  ]
}
