{
  "accessors": [
    {
      "bufferView": 2,
      "componentType": 5126,
      "count": 565,
      "max": [
        0.4739440083503723,
        2.033159017562866,
        0.46921899914741516
      ],
      "min": [
        -0.4739440083503723,
        0.6206600069999695,
        -0.38574400544166565
      ],
      "type": "VEC3"
    },
    {
      "bufferView": 2,
      "byteOffset": 6780,
      "componentType": 5126,
      "count": 565,
      "max": [
        0.9921943545341492,
        0.9909061193466187,
        0.9997798800468445
      ],
      "min": [
        -0.990868330001831,
        -0.922564685344696,
        -0.9996157288551331
      ],
      "type": "VEC3"
    },
    {
      "bufferView": 1,
      "componentType": 5126,
      "count": 565,
      "max": [
        0.9990230202674866,
        1.994873046875
      ],
      "min": [
        0.0014649999793618917,
        1.0310059785842896
      ],
      "type": "VEC2"
    },
    {
      "bufferView": 0,
      "componentType": 5125,
      "count": 2919,
      "type": "SCALAR"
    },
    {
      "bufferView": 2,
      "byteOffset": 13560,
      "componentType": 5126,
      "count": 704,
      "max": [
        0.8617759943008423,
        1.772279977798462,
        0.29858699440956116
      ],
      "min": [
        -0.8617780208587646,
        0.0006849999772384763,
        -0.24727700650691986
      ],
      "type": "VEC3"
    },
    {
      "bufferView": 2,
      "byteOffset": 22008,
      "componentType": 5126,
      "count": 704,
      "max": [
        0.9980587959289551,
        0.8917719125747681,
        0.9984765648841858
      ],
      "min": [
        -0.9985853433609009,
        -0.9875269532203674,
        -0.9994739890098572
      ],
      "type": "VEC3"
    },
    {
      "bufferView": 1,
      "byteOffset": 4520,
      "componentType": 5126,
      "count": 704,
      "max": [
        0.9814450144767761,
        1.9931640625
      ],
      "min": [
        0.008057000115513802,
        1.0080569982528687
      ],
      "type": "VEC2"
    },
    {
      "bufferView": 0,
      "byteOffset": 11676,
      "componentType": 5125,
      "count": 3402,
      "type": "SCALAR"
    }
  ],
  "asset": {
    "extras": {
      "author": "deankagura (https://sketchfab.com/deankagura)",
      "license": "CC-BY-4.0 (http://creativecommons.org/licenses/by/4.0/)",
      "source": "https://sketchfab.com/3d-models/insane-cancer-a222eb4227ec4128aab322bf0eacfed4",
      "title": "Insane Cancer"
    },
    "generator": "Sketchfab-15.47.0",
    "version": "2.0"
  },
  "bufferViews": [
    {
      "buffer": 0,
      "byteLength": 25284,
      "name": "floatBufferViews",
      "target": 34963
    },
    {
      "buffer": 0,
      "byteLength": 10152,
      "byteOffset": 25284,
      "byteStride": 8,
      "name": "floatBufferViews",
      "target": 34962
    },
    {
      "buffer": 0,
      "byteLength": 30456,
      "byteOffset": 35436,
      "byteStride": 12,
      "name": "floatBufferViews",
      "target": 34962
    }
  ],
  "buffers": [
    {
      "byteLength": 65892,
      "uri": "scene.bin"
    }
  ],
  "images": [
    {
      "uri": "textures/body_baseColor.png"
    },
    {
      "uri": "textures/armslegs_baseColor.png"
    }
  ],
  "materials": [
    {
      "doubleSided": true,
      "name": "body",
      "pbrMetallicRoughness": {
        "baseColorTexture": {
          "index": 0
        },
        "metallicFactor": 0.0,
        "roughnessFactor": 0.9577051494623774
      }
    },
    {
      "doubleSided": true,
      "name": "armslegs",
      "pbrMetallicRoughness": {
        "baseColorTexture": {
          "index": 1
        },
        "metallicFactor": 0.0,
        "roughnessFactor": 0.9577051494623774
      }
    }
  ],
  "meshes": [
    {
      "name": "mesh0_body_0",
      "primitives": [
        {
          "attributes": {
            "NORMAL": 1,
            "POSITION": 0,
            "TEXCOORD_0": 2
          },
          "indices": 3,
          "material": 0,
          "mode": 4
        }
      ]
    },
    {
      "name": "mesh1_armslegs_0",
      "primitives": [
        {
          "attributes": {
            "NORMAL": 5,
            "POSITION": 4,
            "TEXCOORD_0": 6
          },
          "indices": 7,
          "material": 1,
          "mode": 4
        }
      ]
    }
  ],
  "nodes": [
    {
      "children": [
        1
      ],
      "matrix": [
        1.0,
        0.0,
        0.0,
        0.0,
        0.0,
        2.220446049250313e-16,
        -1.0,
        0.0,
        0.0,
        1.0,
        2.220446049250313e-16,
        0.0,
        0.0,
        0.0,
        0.0,
        1.0
      ],
      "name": "Sketchfab_model"
    },
    {
      "children": [
        2
      ],
      "matrix": [
        0.009999999776482582,
        0.0,
        0.0,
        0.0,
        0.0,
        0.0,
        0.009999999776482582,
        0.0,
        0.0,
        -0.009999999776482582,
        0.0,
        0.0,
        0.0,
        0.0,
        0.0,
        1.0
      ],
      "name": "Insane Cancer.fbx"
    },
    {
      "children": [
        3,
        5
      ],
      "name": "RootNode"
    },
    {
      "children": [
        4
      ],
      "name": "mesh0"
    },
    {
      "mesh": 0,
      "name": "mesh0_body_0"
    },
    {
      "children": [
        6
      ],
      "name": "mesh1"
    },
    {
      "mesh": 1,
      "name": "mesh1_armslegs_0"
    }
  ],
  "samplers": [
    {
      "magFilter": 9729,
      "minFilter": 9987,
      "wrapS": 10497,
      "wrapT": 10497
    }
  ],
  "scene": 0,
  "scenes": [
    {
      "name": "Sketchfab_Scene",
      "nodes": [
        0
      ]
    }
  ],
  "textures": [
    {
      "sampler": 0,
      "source": 0
    },
    {
      "sampler": 0,
      "source": 1
    }
  ]
}
