{
  "accessors": [
    {
      "bufferView": 1,
      "componentType": 5126,
      "count": 12,
      "max": [
        -1.3557699918746948,
        -3.064379930496216,
        2.462779998779297
      ],
      "min": [
        -1.4616600275039673,
        -3.1826000213623047,
        2.3546199798583984
      ],
      "type": "VEC3"
    },
    {
      "bufferView": 1,
      "byteOffset": 144,
      "componentType": 5126,
      "count": 12,
      "max": [
        0.8360998034477234,
        0.9334387183189392,
        0.8539499640464783
      ],
      "min": [
        -0.8360998034477234,
        -0.9334387183189392,
        -0.8539499640464783
      ],
      "type": "VEC3"
    },
    {
      "bufferView": 0,
      "componentType": 5125,
      "count": 60,
      "type": "SCALAR"
    },
    {
      "bufferView": 1,
      "byteOffset": 288,
      "componentType": 5126,
      "count": 12,
      "max": [
        -1.0851999521255493,
        -3.1644198894500732,
        2.455009937286377
      ],
      "min": [
        -1.1910899877548218,
        -3.282639980316162,
        2.346859931945801
      ],
      "type": "VEC3"
    },
    {
      "bufferView": 1,
      "byteOffset": 432,
      "componentType": 5126,
      "count": 12,
      "max": [
        0.8360998034477234,
        0.9334387183189392,
        0.8539499640464783
      ],
      "min": [
        -0.8360998034477234,
        -0.9334387183189392,
        -0.8539499640464783
      ],
      "type": "VEC3"
    },
    {
      "bufferView": 0,
      "byteOffset": 240,
      "componentType": 5125,
      "count": 60,
      "type": "SCALAR"
    },
    {
      "bufferView": 1,
      "byteOffset": 576,
      "componentType": 5126,
      "count": 303,
      "max": [
        1.410730004310608,
        1.558709979057312,
        2.2730700969696045
      ],
      "min": [
        -1.2886600494384766,
        -1.2398099899291992,
        -3.014699935913086
      ],
      "type": "VEC3"
    },
    {
      "bufferView": 1,
      "byteOffset": 4212,
      "componentType": 5126,
      "count": 303,
      "max": [
        0.9993236064910889,
        0.9998793005943298,
        0.8656504154205322
      ],
      "min": [
        -0.999301552772522,
        -0.9929752349853516,
        -0.9817767143249512
      ],
      "type": "VEC3"
    },
    {
      "bufferView": 0,
      "byteOffset": 480,
      "componentType": 5125,
      "count": 1767,
      "type": "SCALAR"
    },
    {
      "bufferView": 1,
      "byteOffset": 7848,
      "componentType": 5126,
      "count": 417,
      "max": [
        1.2308800220489502,
        3.097090005874634,
        3.0781800746917725
      ],
      "min": [
        -1.4805200099945068,
        -3.3870201110839844,
        -3.8589000701904297
      ],
      "type": "VEC3"
    },
    {
      "bufferView": 1,
      "byteOffset": 12852,
      "componentType": 5126,
      "count": 417,
      "max": [
        0.9991250038146973,
        0.9920288324356079,
        0.9933049082756042
      ],
      "min": [
        -0.9980595111846924,
        -0.9977867603302002,
        -0.9974828362464905
      ],
      "type": "VEC3"
    },
    {
      "bufferView": 0,
      "byteOffset": 7548,
      "componentType": 5125,
      "count": 2427,
      "type": "SCALAR"
    }
  ],
  "asset": {
    "extras": {
      "author": "Elisabetta.Buono (https://sketchfab.com/Elisabetta.Buono)",
      "license": "CC-BY-4.0 (http://creativecommons.org/licenses/by/4.0/)",
      "source": "https://sketchfab.com/3d-models/emu-96605286d6cb4eb69642e8aa72ed0f15",
      "title": "Emù"
    },
    "generator": "Sketchfab-12.68.0",
    "version": "2.0"
  },
  "bufferViews": [
    {
      "buffer": 0,
      "byteLength": 17256,
      "name": "floatBufferViews",
      "target": 34963
    },
    {
      "buffer": 0,
      "byteLength": 17856,
      "byteOffset": 17256,
      "byteStride": 12,
      "name": "floatBufferViews",
      "target": 34962
    }
  ],
  "buffers": [
    {
      "byteLength": 35112,
      "uri": "scene.bin"
    }
  ],
  "materials": [
    {
      "doubleSided": true,
      "name": "Materiale",
      "pbrMetallicRoughness": {
        "baseColorFactor": [
          0.05628584707725197,
          0.05628584707725197,
          0.05628584707725197,
          1.0
        ],
        "metallicFactor": 0.0,
        "roughnessFactor": 0.6
      }
    },
    {
      "doubleSided": true,
      "name": "Materiale.003",
      "pbrMetallicRoughness": {
        "baseColorFactor": [
          0.6400000667200009,
          0.4208912435407572,
          0.5026619032370957,
          1.0
        ],
        "metallicFactor": 0.0,
        "roughnessFactor": 0.6
      }
    }
  ],
  "meshes": [
    {
      "name": "Cilindro_0",
      "primitives": [
        {
          "attributes": {
            "NORMAL": 1,
            "POSITION": 0
          },
          "indices": 2,
          "material": 0,
          "mode": 4
        }
      ]
    },
    {
      "name": "Cilindro.001_0",
      "primitives": [
        {
          "attributes": {
            "NORMAL": 4,
            "POSITION": 3
          },
          "indices": 5,
          "material": 0,
          "mode": 4
        }
      ]
    },
    {
      "name": "Cilindro.002_0",
      "primitives": [
        {
          "attributes": {
            "NORMAL": 7,
            "POSITION": 6
          },
          "indices": 8,
          "material": 0,
          "mode": 4
        }
      ]
    },
    {
      "name": "Cilindro.002_1",
      "primitives": [
        {
          "attributes": {
            "NORMAL": 10,
            "POSITION": 9
          },
          "indices": 11,
          "material": 1,
          "mode": 4
        }
      ]
    }
  ],
  "nodes": [
    {
      "children": [
        1
      ],
      "matrix": [
        1.0,
        0.0,
        0.0,
        0.0,
        0.0,
        2.220446049250313e-16,
        -1.0,
        0.0,
        0.0,
        1.0,
        2.220446049250313e-16,
        0.0,
        0.0,
        0.0,
        0.0,
        1.0
      ],
      "name": "Sketchfab_model"
    },
    {
      "children": [
        2,
        4,
        6,
        8
      ],
      "name": "Root"
    },
    {
      "children": [
        3
      ],
      "matrix": [
        -0.29086000000000006,
        0.9551700000000001,
        -0.05519000000000001,
        0.0,
        -0.7711,
        -0.19988000000000003,
        0.6045200000000001,
        0.0,
        0.5663900000000001,
        0.21839000000000003,
        0.7946700000000001,
        0.0,
        4.076250000000001,
        1.00545,
        5.903860000000001,
        1.0
      ],
      "name": "Lamp"
    },
    {
      "name": "Lamp"
    },
    {
      "children": [
        5
      ],
      "matrix": [
        0.13594000000000003,
        -6.000000000000002e-05,
        -0.05224000000000001,
        0.0,
        -0.05224000000000001,
        0.0009200000000000004,
        -0.13594000000000003,
        0.0,
        0.0003900000000000001,
        0.14563,
        0.0008400000000000003,
        0.0,
        0.0011500000000000004,
        0.06713000000000002,
        -0.013340000000000003,
        1.0
      ],
      "name": "Cilindro"
    },
    {
      "mesh": 0,
      "name": "Cilindro_0"
    },
    {
      "children": [
        7
      ],
      "matrix": [
        0.13594000000000003,
        -6.000000000000002e-05,
        -0.05224000000000001,
        0.0,
        -0.05224000000000001,
        0.0009200000000000004,
        -0.13594000000000003,
        0.0,
        0.0003900000000000001,
        0.14563,
        0.0008400000000000003,
        0.0,
        0.0011500000000000004,
        0.06713000000000002,
        -0.013340000000000003,
        1.0
      ],
      "name": "Cilindro.001"
    },
    {
      "mesh": 1,
      "name": "Cilindro.001_0"
    },
    {
      "children": [
        9,
        10
      ],
      "matrix": [
        0.13594000000000003,
        -6.000000000000002e-05,
        -0.05224000000000001,
        0.0,
        -0.05224000000000001,
        0.0009200000000000004,
        -0.13594000000000003,
        0.0,
        0.0003900000000000001,
        0.14563,
        0.0008400000000000003,
        0.0,
        0.0011500000000000004,
        0.06713000000000002,
        -0.013340000000000003,
        1.0
      ],
      "name": "Cilindro.002"
    },
    {
      "mesh": 2,
      "name": "Cilindro.002_0"
    },
    {
      "mesh": 3,
      "name": "Cilindro.002_1"
    }
  ],
  "scene": 0,
  "scenes": [
    {
      "name": "Sketchfab_Scene",
      "nodes": [
        0
      ]
    }
  ]
}
