{
  "accessors": [
    {
      "bufferView": 2,
      "componentType": 5126,
      "count": 4569,
      "max": [
        2.1343042850494385,
        0.33499565720558167,
        6.602912902832031
      ],
      "min": [
        -2.090580940246582,
        -0.33499565720558167,
        -6.224471569061279
      ],
      "type": "VEC3"
    },
    {
      "bufferView": 2,
      "byteOffset": 54828,
      "componentType": 5126,
      "count": 4569,
      "max": [
        1.0,
        1.0,
        0.9981353282928467
      ],
      "min": [
        -1.0,
        -1.0,
        -1.0
      ],
      "type": "VEC3"
    },
    {
      "bufferView": 1,
      "componentType": 5126,
      "count": 4569,
      "max": [
        1.000189185142517,
        1.0
      ],
      "min": [
        -0.00018917079432867467,
        0.01000000536441803
      ],
      "type": "VEC2"
    },
    {
      "bufferView": 0,
      "componentType": 5125,
      "count": 22212,
      "type": "SCALAR"
    },
    {
      "bufferView": 2,
      "byteOffset": 109656,
      "componentType": 5126,
      "count": 2870,
      "max": [
        5.748517036437988,
        1.000003457069397,
        7.19114351272583
      ],
      "min": [
        -5.618314743041992,
        -1.0000030994415283,
        -5.273134231567383
      ],
      "type": "VEC3"
    },
    {
      "bufferView": 2,
      "byteOffset": 144096,
      "componentType": 5126,
      "count": 2870,
      "max": [
        0.9999944567680359,
        1.0,
        1.0
      ],
      "min": [
        -1.0,
        -1.0,
        -1.0
      ],
      "type": "VEC3"
    },
    {
      "bufferView": 1,
      "byteOffset": 36552,
      "componentType": 5126,
      "count": 2870,
      "max": [
        0.8750001192092896,
        1.0000001192092896
      ],
      "min": [
        0.125,
        0.0
      ],
      "type": "VEC2"
    },
    {
      "bufferView": 0,
      "byteOffset": 88848,
      "componentType": 5125,
      "count": 14592,
      "type": "SCALAR"
    },
    {
      "bufferView": 2,
      "byteOffset": 178536,
      "componentType": 5126,
      "count": 2206,
      "max": [
        5.33751106262207,
        0.23201528191566467,
        5.950039386749268
      ],
      "min": [
        -5.2138261795043945,
        -0.23201510310173035,
        -5.008970737457275
      ],
      "type": "VEC3"
    },
    {
      "bufferView": 2,
      "byteOffset": 205008,
      "componentType": 5126,
      "count": 2206,
      "max": [
        0.9999982714653015,
        1.0,
        0.9999801516532898
      ],
      "min": [
        -0.9999982714653015,
        -1.0,
        -0.999980092048645
      ],
      "type": "VEC3"
    },
    {
      "bufferView": 1,
      "byteOffset": 59512,
      "componentType": 5126,
      "count": 2206,
      "max": [
        1.0000001192092896,
        1.0000001192092896
      ],
      "min": [
        0.0,
        0.010000006295740604
      ],
      "type": "VEC2"
    },
    {
      "bufferView": 0,
      "byteOffset": 147216,
      "componentType": 5125,
      "count": 9216,
      "type": "SCALAR"
    }
  ],
  "asset": {
    "extras": {
      "author": "aashifkashif23 (https://sketchfab.com/aashifkashif23)",
      "license": "CC-BY-4.0 (http://creativecommons.org/licenses/by/4.0/)",
      "source": "https://sketchfab.com/3d-models/street-light-fbx-1fbf6e80cb7e4705b39680cc17e622b2",
      "title": "Street Light Fbx"
    },
    "generator": "Sketchfab-13.83.0",
    "version": "2.0"
  },
  "bufferViews": [
    {
      "buffer": 0,
      "byteLength": 184080,
      "name": "floatBufferViews",
      "target": 34963
    },
    {
      "buffer": 0,
      "byteLength": 77160,
      "byteOffset": 184080,
      "byteStride": 8,
      "name": "floatBufferViews",
      "target": 34962
    },
    {
      "buffer": 0,
      "byteLength": 231480,
      "byteOffset": 261240,
      "byteStride": 12,
      "name": "floatBufferViews",
      "target": 34962
    }
  ],
  "buffers": [
    {
      "byteLength": 492720,
      "uri": "scene.bin"
    }
  ],
  "materials": [
    {
      "doubleSided": true,
      "name": "street_pole",
      "pbrMetallicRoughness": {
        "baseColorFactor": [
          0.0236507,
          0.0236507,
          0.0236507,
          1.0
        ],
        "metallicFactor": 0.0,
        "roughnessFactor": 0.9933105718600765
      }
    },
    {
      "doubleSided": true,
      "name": "street_light",
      "pbrMetallicRoughness": {
        "baseColorFactor": [
          0.162642,
          0.162642,
          0.162642,
          1.0
        ],
        "metallicFactor": 0.0,
        "roughnessFactor": 0.9601610089254259
      }
    },
    {
      "doubleSided": true,
      "name": "Material.003",
      "pbrMetallicRoughness": {
        "baseColorFactor": [
          0.8,
          0.8,
          0.8,
          1.0
        ],
        "metallicFactor": 0.0,
        "roughnessFactor": 0.8040408205773457
      }
    }
  ],
  "meshes": [
    {
      "name": "Cylinder_street pole_0",
      "primitives": [
        {
          "attributes": {
            "NORMAL": 1,
            "POSITION": 0,
            "TEXCOORD_0": 2
          },
          "indices": 3,
          "material": 0,
          "mode": 4
        }
      ]
    },
    {
      "name": "Cube.007_street light_0",
      "primitives": [
        {
          "attributes": {
            "NORMAL": 5,
            "POSITION": 4,
            "TEXCOORD_0": 6
          },
          "indices": 7,
          "material": 1,
          "mode": 4
        }
      ]
    },
    {
      "name": "Cube.007_Material.003_0",
      "primitives": [
        {
          "attributes": {
            "NORMAL": 9,
            "POSITION": 8,
            "TEXCOORD_0": 10
          },
          "indices": 11,
          "material": 2,
          "mode": 4
        }
      ]
    }
  ],
  "nodes": [
    {
      "children": [
        1
      ],
      "matrix": [
        1.0,
        0.0,
        0.0,
        0.0,
        0.0,
        2.220446049250313e-16,
        -1.0,
        0.0,
        0.0,
        1.0,
        2.220446049250313e-16,
        0.0,
        0.0,
        0.0,
        0.0,
        1.0
      ],
      "name": "Sketchfab_model"
    },
    {
      "children": [
        2
      ],
      "matrix": [
        0.009999999776482582,
        0.0,
        0.0,
        0.0,
        0.0,
        0.0,
        0.009999999776482582,
        0.0,
        0.0,
        -0.009999999776482582,
        0.0,
        0.0,
        0.0,
        0.0,
        0.0,
        1.0
      ],
      "name": "16a2cb2c89d643aeb080889e50dbb87b.fbx"
    },
    {
      "children": [
        3,
        6,
        9,
        11
      ],
      "name": "RootNode"
    },
    {
      "children": [
        4
      ],
      "matrix": [
        132.59115116496358,
        46.35969872737271,
        6.908809878062569e-15,
        0.0,
        -46.35969872737258,
        132.5911511649632,
        -1.0604602759380159e-05,
        0.0,
        -3.5000599636716394e-06,
        1.0010353636858e-05,
        140.46221923828085,
        0.0,
        -847.9757080078125,
        1259.8419189453125,
        0.0,
        1.0
      ],
      "name": "Spot"
    },
    {
      "children": [
        5
      ],
      "matrix": [
        1.0,
        0.0,
        0.0,
        0.0,
        0.0,
        2.220446049250313e-16,
        1.0,
        0.0,
        0.0,
        -1.0,
        2.220446049250313e-16,
        0.0,
        0.0,
        0.0,
        0.0,
        1.0
      ],
      "name": "Object_4"
    },
    {
      "name": "Object_5"
    },
    {
      "children": [
        7
      ],
      "matrix": [
        131.7140024211312,
        -48.796071558571484,
        1.8634347551680712e-13,
        0.0,
        48.79607155857135,
        131.71400242113083,
        -1.0604602759380164e-05,
        0.0,
        3.6840008178645234e-06,
        9.944130814617581e-06,
        140.46221923828085,
        0.0,
        -1350.774169921875,
        1259.842041015625,
        0.0,
        1.0
      ],
      "name": "Spot.001"
    },
    {
      "children": [
        8
      ],
      "matrix": [
        1.0,
        0.0,
        0.0,
        0.0,
        0.0,
        2.220446049250313e-16,
        1.0,
        0.0,
        0.0,
        -1.0,
        2.220446049250313e-16,
        0.0,
        0.0,
        0.0,
        0.0,
        1.0
      ],
      "name": "Object_7"
    },
    {
      "name": "Object_8"
    },
    {
      "children": [
        10
      ],
      "matrix": [
        100.0,
        0.0,
        0.0,
        0.0,
        -0.0,
        -1.629206793918314e-05,
        -99.99999999999868,
        0.0,
        0.0,
        99.99999999999868,
        -1.629206793918314e-05,
        0.0,
        -1099.9420166015625,
        594.1282348632813,
        0.0,
        1.0
      ],
      "name": "Cylinder"
    },
    {
      "mesh": 0,
      "name": "Cylinder_street pole_0"
    },
    {
      "children": [
        12,
        13
      ],
      "matrix": [
        -48.10425969709319,
        14.668200024850384,
        1.4473173942750159e-05,
        0.0,
        9.322096134421016e-06,
        4.847258052611243e-06,
        26.071128845212726,
        0.0,
        4.465758585562401,
        14.645424140694525,
        -4.319735509024981e-06,
        0.0,
        -1097.755859375,
        1259.8419189453125,
        -1.4164593267196324e-06,
        1.0
      ],
      "name": "Cube.007"
    },
    {
      "mesh": 1,
      "name": "Cube.007_street light_0"
    },
    {
      "mesh": 2,
      "name": "Cube.007_Material.003_0"
    }
  ],
  "scene": 0,
  "scenes": [
    {
      "name": "Sketchfab_Scene",
      "nodes": [
        0
      ]
    }
  ]
}
